<svg xmlns="http://www.w3.org/2000/svg" viewBox="0 0 13.76 12.81"><defs><style>.cls-1{fill:none;stroke:#323232;stroke-linecap:round;stroke-linejoin:round;stroke-width:0.75px;}</style></defs><g id="Layer_2" data-name="Layer 2"><g id="Layer_1-2" data-name="Layer 1"><path class="cls-1" d="M7.16,11.47l-2.6.95a.26.26,0,0,1-.33-.33l.95-2.6a.21.21,0,0,1,.06-.1l5.82-5.85a1,1,0,0,1,1.46,0l.56.56a1,1,0,0,1,0,1.46L7.26,11.41A.21.21,0,0,1,7.16,11.47Z"/><line class="cls-1" x1="10.17" y1="4.43" x2="12.19" y2="6.45"/><line class="cls-1" x1="0.38" y1="2.3" x2="6.74" y2="2.3"/><line class="cls-1" x1="0.38" y1="4.22" x2="6.74" y2="4.22"/><line class="cls-1" x1="0.38" y1="0.38" x2="6.74" y2="0.38"/></g></g></svg>