<svg xmlns="http://www.w3.org/2000/svg" viewBox="0 0 12.67 18.25"><defs><style>.cls-1{fill:none;stroke:#323232;stroke-linecap:round;stroke-miterlimit:10;stroke-width:0.75px;}</style></defs><g id="Layer_2" data-name="Layer 2"><g id="Layer_1-2" data-name="Layer 1"><path class="cls-1" d="M2.55,4.16a3.79,3.79,0,0,1,7.57,0v3H8.05v-3a1.72,1.72,0,1,0-3.43,0v3H2.55Z"/><path class="cls-1" d="M7.29,17.88H5.38a5,5,0,0,1-5-5V9.68a2.49,2.49,0,0,1,2.5-2.5H9.79a2.5,2.5,0,0,1,2.5,2.5v3.2A5,5,0,0,1,7.29,17.88Z"/><path class="cls-1" d="M8,11.05a1.69,1.69,0,1,0-2.4,1.52v2.34a.72.72,0,0,0,1.43,0V12.57A2,2,0,0,0,8,11.05Z"/></g></g></svg>