<svg xmlns="http://www.w3.org/2000/svg" viewBox="0 0 14.59 14.59"><defs><style>.cls-1{isolation:isolate;}.cls-2{fill:#464646;}</style></defs><g id="Layer_2" data-name="Layer 2"><g id="Layer_1-2" data-name="Layer 1"><g class="cls-1"><path class="cls-2" d="M.29,5.91,4.4,8.49a.29.29,0,0,0,.31,0L9.64,4.57A.27.27,0,0,1,10,5L6.11,9.88a.27.27,0,0,0,0,.31L8.68,14.3a.61.61,0,0,0,1.09-.11C10.83,11.26,13.56,3.7,14.55.81A.61.61,0,0,0,13.78,0C10.89,1,3.33,3.76.4,4.82A.61.61,0,0,0,.29,5.91"/></g></g></g></svg>