<svg xmlns="http://www.w3.org/2000/svg" viewBox="0 0 15.08 14.9"><defs><style>.cls-1{isolation:isolate;}.cls-2,.cls-3,.cls-4{fill:none;stroke:#323232;stroke-width:0.75px;}.cls-2,.cls-4{stroke-linecap:round;}.cls-2{stroke-linejoin:round;}.cls-3,.cls-4{stroke-miterlimit:10;}</style></defs><g id="Layer_2" data-name="Layer 2"><g id="Layer_1-2" data-name="Layer 1"><g class="cls-1"><path class="cls-2" d="M8.49,13.56l-2.6.95a.27.27,0,0,1-.34-.34l1-2.6.06-.09,5.82-5.85a1,1,0,0,1,1.46,0l.56.55a1.05,1.05,0,0,1,0,1.47L8.58,13.5Z"/><line class="cls-2" x1="11.49" y1="6.52" x2="13.51" y2="8.54"/><path class="cls-3" d="M8.39,4.38a4,4,0,1,1-4-4A4,4,0,0,1,8.39,4.38Z"/><polyline class="cls-4" points="4.38 1.67 4.38 4.38 6.7 4.38"/></g></g></g></svg>